<?xml version="1.0" encoding="utf-8"?>
<!-- Generator: Adobe Illustrator 19.0.0, SVG Export Plug-In . SVG Version: 6.00 Build 0)  -->
<svg version="1.1" id="Layer_1" xmlns="http://www.w3.org/2000/svg" xmlns:xlink="http://www.w3.org/1999/xlink" x="0px" y="0px"
	 viewBox="0 0 1280 194" style="enable-background:new 0 0 1280 194;" xml:space="preserve">
<style type="text/css">
	.st0{fill:#FFFFFF;}
</style>
<g id="XMLID_93_">
	<path id="XMLID_195_" class="st0" d="M1280,146.3c-7,0-13.9,0-21.1,0c0-19.2,0-38.4,0-57.5c-0.1,0-0.2-0.1-0.4-0.1
		c-0.2,0.3-0.4,0.6-0.6,1c-8.9,15-17.8,30-26.7,45.1c-0.6,1-1.1,1.4-2.3,1.3c-2.5-0.1-5-0.1-7.4,0c-0.9,0-1.4-0.2-1.9-1.1
		c-8.9-14.7-17.7-29.3-26.6-43.9c-0.2-0.4-0.5-0.7-0.9-1.4c0,19.1,0,37.8,0,56.6c-7.1,0-14.1,0-21.1,0c0-32.3,0-64.6,0-96.9
		c0.5,0,0.9-0.1,1.3-0.1c5.3,0,10.7,0,16,0c0.9,0,1.4,0.3,1.8,1c11.5,19.3,23.1,38.5,34.7,57.8c0.3,0.4,0.5,0.9,0.9,1.5
		c0.7-1.2,1.4-2.3,2-3.4c11-18.5,21.9-37,32.8-55.6c0.6-1,1.2-1.3,2.3-1.3c5.1,0.1,10.3,0,15.4,0c0.5,0,0.9,0,1.5,0c0,0.6,0,1,0,1.5
		c0,10.1,0,20.3,0.1,30.4c0,0.4,0.1,0.9,0.2,1.3C1280,103.7,1280,125,1280,146.3z"/>
	<path id="XMLID_194_" class="st0" d="M637.6,97.2c0,15,0,29.9,0,44.9c0,3.4-1.4,4.8-4.8,4.8c-3.3,0-6.6-0.1-9.9,0
		c-3.7,0.2-5.1-2.2-5.1-5c0.1-13.6,0-27.2,0-40.8c0-0.3,0.1-0.7,0-1c-0.2-0.4-0.5-0.8-0.7-1.2c-0.4,0.3-0.9,0.5-1.1,0.8
		c-1.3,2.9-2.5,5.8-3.7,8.7c-5,11.8-10.1,23.6-15.1,35.5c-0.9,2-2.2,3-4.4,3c-3-0.1-6-0.1-9,0c-2.2,0-3.6-0.9-4.4-2.9
		c-6.1-14.5-12.3-29.1-18.5-43.6c-0.1-0.2-0.1-0.4-0.3-0.6c-0.3-0.3-0.7-0.6-1.1-0.9c-0.3,0.4-0.7,0.8-0.8,1.3c-0.1,1.2,0,2.4,0,3.6
		c0,12.8,0,25.6,0,38.4c0,3.3-1.4,4.8-4.7,4.8c-3.5,0-7,0-10.5,0c-2.9,0-4.5-1.5-4.5-4.5c0-2.9,0-5.7,0-8.6c0-27.1,0-54.1,0-81.2
		c0-0.7,0-1.4,0.1-2c0.4-1.9,1.8-3.2,3.8-3.2c4.4,0,8.7,0,13.1,0c2,0,3.1,1.1,3.8,2.9c3.2,8.2,6.5,16.4,9.7,24.5
		c5.6,14.2,11.2,28.3,16.8,42.5c0,0.1,0.1,0.2,0.1,0.4c0.3,1,0.9,1.6,2,1.6c1.1,0,1.6-0.7,1.9-1.6c2.3-5.8,4.5-11.5,6.8-17.3
		c6.6-16.6,13.1-33.3,19.7-49.9c1-2.5,2-3.2,4.6-3.2c3.8,0,7.6,0,11.4,0c3.3,0,4.8,1.4,4.8,4.7C637.6,67.1,637.6,82.1,637.6,97.2z"
		/>
	<path id="XMLID_191_" class="st0" d="M524.6,96.9c0,28.4-22.8,51.3-51,51.3c-28,0-50.7-23-50.7-51.3c0-28.3,22.8-51.3,50.8-51.3
		C501.9,45.7,524.6,68.6,524.6,96.9z M473.8,128.4c17.3,0,31.2-14,31.3-31.6c0-17.2-13.9-31.4-31-31.4c-17.4,0-31.4,13.9-31.4,31.3
		C442.6,114.3,456.4,128.4,473.8,128.4z"/>
	<path id="XMLID_188_" class="st0" d="M414.1,96.9c0,28.3-22.7,51.3-50.6,51.3c-28.2,0-51-22.8-51-51.2c0-28.4,22.6-51.3,50.7-51.4
		C391.2,45.6,414.1,68.6,414.1,96.9z M394.5,97c0.1-17.2-13.8-31.4-30.8-31.5c-17.3-0.2-31.4,13.8-31.6,31
		c-0.1,17.7,13.6,31.9,31,32C380.4,128.5,394.4,114.6,394.5,97z"/>
	<path id="XMLID_187_" class="st0" d="M973.9,49.3c24.4,0,48.7,0,73.1,0c0,6,0,11.9,0,18c-16.9,0-33.8,0-50.7,0c0,7.1,0,14,0,21
		c14.9,0,29.8,0,44.7,0c0,5.8,0,11.6,0,17.5c-14.9,0-29.7,0-44.7,0c0,7.5,0,14.9,0,22.4c17.4,0,34.9,0,52.4,0c0,6.1,0,12.1,0,18.1
		c-24.9,0-49.8,0-74.9,0C973.9,114,973.9,81.7,973.9,49.3z"/>
	<path id="XMLID_184_" class="st0" d="M833.9,2.1c1.7,0.5,3.2,0.9,5,1.3c-4.1,15.3-8.2,30.5-12.2,45.9c17.5-3.5,34.2-2,50.1,6.7
		c-2.4,5.8-4.7,11.5-6.9,17c-4.2-1.7-8.1-3.6-12.3-5c-7.6-2.5-15.5-3.2-23.4-1.5c-3.1,0.7-5.8,2-7.8,4.6c-3.3,4.2-2.2,10,2.4,12.5
		c4.2,2.3,8.8,3.3,13.3,4.5c7,1.9,14.1,3.8,21.1,5.9c5.6,1.8,10.2,5.2,13.7,9.9c3.5,4.8,4.3,10.5,3.8,16.2
		c-1.1,12.1-8.3,19.5-19,24.1c-6.1,2.6-12.6,3.5-19.3,3.7c-11.5,0.3-22.6-1.5-33.1-6c-2.2-0.9-4.3-2.1-6.5-3.2
		c-4.7,17.7-9.5,35.4-14.2,53.2c-1.7-0.5-3.3-0.9-5-1.3C800.3,127.8,817.1,65,833.9,2.1z M807.8,119.8c12.1,7.9,25,11.5,39.3,9.5
		c3.6-0.5,7-1.7,9.5-4.6c2.9-3.4,2.5-8.4-1.1-11.1c-1.8-1.3-3.8-2.5-5.9-3.2c-3.3-1.2-6.8-2-10.2-2.9c-8.8-2.3-17.8-4.1-26-8.6
		C811.5,105.9,809.7,112.8,807.8,119.8z"/>
	<path id="XMLID_181_" class="st0" d="M1163,146.3c-0.5,0-0.8,0.1-1.2,0.1c-7.1,0-14.1,0-21.2,0c-0.9,0-1.2-0.2-1.6-1
		c-2.5-6.2-5.1-12.4-7.6-18.6c-0.4-0.9-0.8-1.2-1.8-1.2c-14.1,0-28.2,0-42.3,0c-1.1,0-1.5,0.4-1.8,1.3c-2.5,6.2-5,12.3-7.6,18.5
		c-0.2,0.6-0.4,1.1-1.3,1.1c-7.2,0-14.4,0-21.5,0c-0.2,0-0.3,0-0.6-0.1c1.4-3.2,2.7-6.2,4.1-9.3c12.8-28.8,25.6-57.6,38.4-86.4
		c0.4-1,0.9-1.3,2-1.3c6.5,0.1,13.1,0,19.6,0c0.9,0,1.3,0.3,1.7,1.1c14.1,31.7,28.2,63.3,42.3,94.9
		C1162.8,145.6,1162.9,145.9,1163,146.3z M1108.6,71.4c-5.2,12.5-10.2,24.7-15.2,36.9c10.3,0,20.3,0,30.5,0
		C1118.8,96.1,1113.7,83.9,1108.6,71.4z"/>
	<path id="XMLID_178_" class="st0" d="M653.4,97.1c0-14.9,0-29.8,0-44.6c0-0.6,0-1.1,0-1.7c0.2-2,1.7-3.5,3.7-3.5c2.5,0,5,0,7.6,0
		c18.3,0,36.6,0,54.9,0c3.5,0,4.8,1.3,4.8,4.9c0,16.7,0,33.3,0,50c0,3.5-1.4,4.9-4.9,4.9c-13.9,0-27.8,0-41.7,0
		c-3.3,0-4.7,1.4-4.7,4.8c0,10,0,20.1,0,30.1c0,0.8,0,1.6-0.3,2.3c-0.5,1.6-2,2.6-3.8,2.6c-3.6,0-7.3,0-10.9,0
		c-3.3,0-4.7-1.4-4.7-4.8c0-8.2,0-16.5,0-24.7C653.4,110.6,653.4,103.8,653.4,97.1z M689,87.1c3.8,0,7.6,0,11.4,0
		c2.7,0,4.3-1.5,4.4-4.3c0-3.8,0-7.6,0-11.4c0-2.7-1.6-4.2-4.3-4.2c-7.7,0-15.4,0-23.1,0c-2.6,0-4.2,1.5-4.2,4.1
		c0,3.9-0.1,7.8,0,11.7c0,2.6,1.7,4.1,4.3,4.1C681.3,87.1,685.1,87.1,689,87.1z"/>
	<path id="XMLID_177_" class="st0" d="M275.5,86.9c8.4,12.6,16.5,25,24.6,37.3c3.5,5.3,7,10.6,10.5,15.9c1,1.5,1.4,3,0.5,4.7
		c-0.9,1.6-2.3,2.1-4.1,2c-4.2-0.1-8.5-0.1-12.7,0c-2.1,0-3.5-0.8-4.6-2.5c-8.8-13.4-17.6-26.7-26.4-40c-1.5-2.2-2.5-2.3-4.3-0.4
		c-1.7,1.8-3.4,3.6-5.2,5.3c-1.3,1.2-1.8,2.6-1.8,4.3c0.1,9.5,0,19,0,28.5c0,3.5-1.4,4.9-4.9,4.9c-3.5,0-6.9,0-10.4,0
		c-2.9,0-4.5-1.5-4.5-4.4c0-30.3,0-60.5,0-90.8c0-2.9,1.5-4.4,4.4-4.4c3.6,0,7.2,0,10.8,0c3,0,4.5,1.5,4.5,4.5c0,9.8,0,19.6,0,29.4
		c0,0.5,0,0.9,0,1.4c0.2,1.5,1.9,2.2,3.1,1.3c0.4-0.3,0.7-0.6,1-1c11.2-11.3,22.3-22.5,33.5-33.8c1.2-1.2,2.5-1.9,4.3-1.8
		c3.7,0.1,7.4,0.1,11.2,0c1.9,0,3.4,0.6,4.1,2.4c0.8,1.8,0.2,3.4-1.2,4.8c-10.4,10.4-20.7,20.9-31.1,31.3
		C276.5,86.2,276,86.5,275.5,86.9z"/>
	<path id="XMLID_176_" class="st0" d="M964.1,49.3c0,0.3,0,0.5,0,0.7c0,5.8,0,11.5,0,17.5c-10.3,0-20.6,0-31,0c0,26.3,0,52.5,0,78.7
		c-7.5,0-14.9,0-22.4,0c0-26.2,0-52.3,0-78.6c-10.4,0-20.6,0-31,0c0-6.2,0-12.2,0-18.3C907.9,49.3,936,49.3,964.1,49.3z"/>
	<path id="XMLID_175_" class="st0" d="M0,103c0.5,0,0.9,0,1.2,0c21,0,42,0,63,0c12.4,0,22.6,8.2,25.3,20.3c0.4,1.8,0.6,3.6,0.6,5.5
		c0,21.5,0,43,0,64.5c0,0.2,0,0.4,0,0.8C74.6,149.2,44.8,118.8,0,103z"/>
	<path id="XMLID_174_" class="st0" d="M90.1,0c0,0.6,0,0.9,0,1.2c0,21.3,0,42.6,0,63.9c0,12.6-8.5,23-20.7,25.5
		c-1.7,0.3-3.4,0.5-5.1,0.5c-20.9,0-41.9,0-62.8,0c-0.4,0-0.7,0-1.2-0.1C44.8,75.1,74.6,44.7,90.1,0z"/>
	<path id="XMLID_173_" class="st0" d="M192,103c-44.7,15.8-74.5,46.2-90.1,90.9c0-0.5,0-0.9,0-1.2c0-21.2,0-42.5,0-63.7
		c0-12.7,8.6-23.1,21.1-25.5c1.4-0.3,2.9-0.4,4.3-0.4c21.2,0,42.5,0,63.7,0C191.4,103,191.6,103,192,103z"/>
	<path id="XMLID_172_" class="st0" d="M191.9,91c-0.7,0-1.1,0-1.5,0c-20.2,0-40.4,0-60.7,0c-13.9,0-24.8-9-27.4-22.7
		c-0.3-1.5-0.4-3-0.4-4.5c0-20.9,0-41.9,0-62.8c0-0.3,0-0.5,0-0.9C117.4,44.8,147.2,75.1,191.9,91z"/>
	<path id="XMLID_171_" class="st0" d="M740.2,97.1c0-15,0-30,0-45c0-3.3,1.4-4.8,4.7-4.8c3.5,0,7.1,0,10.6,0c2.8,0,4.4,1.6,4.4,4.4
		c0,30.3,0,60.5,0,90.8c0,2.8-1.6,4.4-4.4,4.4c-3.7,0-7.4,0-11,0c-2.8,0-4.4-1.6-4.4-4.4C740.2,127.3,740.2,112.2,740.2,97.1z"/>
</g>
</svg>
